<svg xmlns="http://www.w3.org/2000/svg" xmlns:xlink="http://www.w3.org/1999/xlink" width="400" zoomAndPan="magnify" viewBox="0 0 300 168.749997" height="225" preserveAspectRatio="xMidYMid meet" version="1.0"><defs><g/><clipPath id="52191b0956"><path d="M 0.222656 0 L 82 0 L 82 93 L 0.222656 93 Z M 0.222656 0 " clip-rule="nonzero"/></clipPath><clipPath id="d954c5a4b9"><path d="M 218 0 L 299.777344 0 L 299.777344 93 L 218 93 Z M 218 0 " clip-rule="nonzero"/></clipPath><clipPath id="c140c013d6"><path d="M 262 128 L 299.777344 128 L 299.777344 162 L 262 162 Z M 262 128 " clip-rule="nonzero"/></clipPath></defs><g clip-path="url(#52191b0956)"><g fill="#ffffff" fill-opacity="1"><g transform="translate(-0.567221, 92.09502)"><g><path d="M 29.136719 -38.640625 L 31.925781 -48.902344 C 34.714844 -58.65625 37.5 -69.300781 39.90625 -79.5625 L 40.414062 -79.5625 C 43.203125 -69.425781 45.734375 -58.65625 48.648438 -48.902344 L 51.4375 -38.640625 Z M 62.078125 0 L 81.714844 0 L 51.5625 -93.75 L 29.519531 -93.75 L -0.507812 0 L 18.496094 0 L 25.085938 -24.070312 L 55.488281 -24.070312 Z M 62.078125 0 "/></g></g></g></g><g fill="#ffffff" fill-opacity="1"><g transform="translate(80.634374, 92.09502)"><g/></g></g><g fill="#ffffff" fill-opacity="1"><g transform="translate(109.390633, 92.09502)"><g><path d="M 29.136719 -38.640625 L 31.925781 -48.902344 C 34.714844 -58.65625 37.5 -69.300781 39.90625 -79.5625 L 40.414062 -79.5625 C 43.203125 -69.425781 45.734375 -58.65625 48.648438 -48.902344 L 51.4375 -38.640625 Z M 62.078125 0 L 81.714844 0 L 51.5625 -93.75 L 29.519531 -93.75 L -0.507812 0 L 18.496094 0 L 25.085938 -24.070312 L 55.488281 -24.070312 Z M 62.078125 0 "/></g></g></g><g fill="#ffffff" fill-opacity="1"><g transform="translate(190.592229, 92.09502)"><g/></g></g><g clip-path="url(#d954c5a4b9)"><g fill="#ffffff" fill-opacity="1"><g transform="translate(219.348487, 92.09502)"><g><path d="M 29.136719 -38.640625 L 31.925781 -48.902344 C 34.714844 -58.65625 37.5 -69.300781 39.90625 -79.5625 L 40.414062 -79.5625 C 43.203125 -69.425781 45.734375 -58.65625 48.648438 -48.902344 L 51.4375 -38.640625 Z M 62.078125 0 L 81.714844 0 L 51.5625 -93.75 L 29.519531 -93.75 L -0.507812 0 L 18.496094 0 L 25.085938 -24.070312 L 55.488281 -24.070312 Z M 62.078125 0 "/></g></g></g></g><g fill="#ffffff" fill-opacity="1"><g transform="translate(6.874878, 160.363349)"><g><path d="M 11.914062 -24.121094 L 14.984375 -24.121094 L 14.984375 -28.5 L 26.898438 -28.5 L 26.898438 -24.121094 L 29.972656 -24.121094 L 29.972656 -28.5 L 38.894531 -28.5 L 38.894531 -31.359375 L 29.972656 -31.359375 L 29.972656 -35.191406 L 26.898438 -35.191406 L 26.898438 -31.359375 L 14.984375 -31.359375 L 14.984375 -35.191406 L 11.914062 -35.191406 L 11.914062 -31.359375 L 3.03125 -31.359375 L 3.03125 -28.5 L 11.914062 -28.5 Z M 9.890625 -11.703125 L 9.890625 -18.691406 L 19.28125 -18.691406 L 19.28125 -14.734375 C 19.28125 -13.722656 19.238281 -12.710938 19.070312 -11.703125 Z M 32.371094 -18.691406 L 32.371094 -11.703125 L 22.308594 -11.703125 C 22.4375 -12.671875 22.480469 -13.722656 22.480469 -14.691406 L 22.480469 -18.691406 Z M 39.613281 -8.753906 L 39.613281 -11.703125 L 35.484375 -11.703125 L 35.484375 -21.511719 L 22.480469 -21.511719 L 22.480469 -26.351562 L 19.28125 -26.351562 L 19.28125 -21.511719 L 6.863281 -21.511719 L 6.863281 -11.703125 L 2.527344 -11.703125 L 2.527344 -8.753906 L 18.183594 -8.753906 C 16.5 -5.007812 12.292969 -1.601562 1.769531 0.714844 C 2.441406 1.390625 3.285156 2.652344 3.664062 3.324219 C 14.605469 0.671875 19.320312 -3.285156 21.257812 -7.703125 C 24.582031 -1.558594 30.265625 1.851562 38.601562 3.324219 C 39.0625 2.484375 39.90625 1.179688 40.621094 0.503906 C 32.582031 -0.632812 26.941406 -3.578125 23.910156 -8.753906 Z M 39.613281 -8.753906 "/></g></g></g><g fill="#ffffff" fill-opacity="1"><g transform="translate(48.964864, 160.363349)"><g><path d="M 3.871094 -11.324219 L 14.945312 -11.324219 C 13.808594 -8.25 11.996094 -4.421875 10.398438 -1.515625 C 8.125 -1.429688 6.019531 -1.390625 4.210938 -1.347656 L 4.628906 1.726562 C 11.828125 1.472656 22.730469 1.011719 33.042969 0.503906 C 33.84375 1.515625 34.476562 2.484375 34.980469 3.324219 L 37.800781 1.601562 C 35.863281 -1.515625 31.78125 -6.0625 27.910156 -9.386719 L 25.257812 -7.957031 C 27.109375 -6.3125 29.085938 -4.25 30.8125 -2.273438 C 24.921875 -2.019531 18.984375 -1.808594 13.765625 -1.640625 C 15.449219 -4.589844 17.257812 -8.207031 18.730469 -11.324219 L 38.476562 -11.324219 L 38.476562 -14.226562 L 3.871094 -14.226562 Z M 11.027344 -22.226562 L 11.027344 -19.363281 L 30.941406 -19.363281 L 30.941406 -22.226562 Z M 19.109375 -35.148438 C 15.871094 -29.804688 8.882812 -23.742188 1.683594 -20.289062 C 2.355469 -19.660156 3.15625 -18.523438 3.492188 -17.804688 C 10.648438 -21.34375 17.46875 -27.109375 20.878906 -32.160156 C 24.792969 -26.730469 32.160156 -21.132812 38.644531 -17.976562 C 39.191406 -18.902344 39.949219 -19.996094 40.664062 -20.753906 C 34.054688 -23.488281 26.730469 -28.960938 22.308594 -35.148438 Z M 19.109375 -35.148438 "/></g></g></g><g fill="#ffffff" fill-opacity="1"><g transform="translate(91.054849, 160.363349)"><g><path d="M 15.871094 -33.761719 L 4 -33.761719 L 4 -31.234375 L 15.871094 -31.234375 Z M 13.34375 -8.335938 L 13.34375 -1.304688 L 6.398438 -1.304688 L 6.398438 -8.335938 Z M 16.082031 -10.902344 L 3.664062 -10.902344 L 3.664062 3.15625 L 6.398438 3.15625 L 6.398438 1.261719 L 16.082031 1.261719 Z M 3.746094 -14.144531 L 15.953125 -14.144531 L 15.953125 -16.628906 L 3.746094 -16.628906 Z M 15.953125 -22.351562 L 3.746094 -22.351562 L 3.746094 -19.867188 L 15.953125 -19.867188 Z M 1.769531 -25.59375 L 17.34375 -25.59375 L 17.34375 -28.160156 L 1.769531 -28.160156 Z M 35.402344 -1.726562 L 23.027344 -1.726562 L 23.027344 -10.144531 L 35.402344 -10.144531 Z M 40.453125 -20.039062 L 40.453125 -23.027344 L 30.601562 -23.027344 L 30.601562 -30.183594 C 33.675781 -30.6875 36.582031 -31.277344 38.9375 -31.992188 L 36.664062 -34.519531 C 32.457031 -33.214844 24.960938 -32.160156 18.648438 -31.527344 C 18.984375 -30.8125 19.449219 -29.675781 19.53125 -28.917969 C 22.058594 -29.128906 24.75 -29.382812 27.445312 -29.71875 L 27.445312 -23.027344 L 17.636719 -23.027344 L 17.636719 -20.039062 L 27.445312 -20.039062 L 27.445312 -13.007812 L 20.078125 -13.007812 L 20.078125 3.199219 L 23.027344 3.199219 L 23.027344 1.09375 L 35.402344 1.09375 L 35.402344 2.945312 L 38.515625 2.945312 L 38.515625 -13.007812 L 30.601562 -13.007812 L 30.601562 -20.039062 Z M 40.453125 -20.039062 "/></g></g></g><g fill="#ffffff" fill-opacity="1"><g transform="translate(133.144835, 160.363349)"><g><path d="M 31.527344 -29.804688 C 30.855469 -29.59375 29.761719 -29.425781 28.371094 -29.425781 L 12.125 -29.425781 C 10.859375 -29.425781 8.460938 -29.636719 7.871094 -29.71875 L 7.871094 -25.886719 C 8.335938 -25.929688 10.648438 -26.097656 12.125 -26.097656 L 28.539062 -26.097656 C 27.488281 -22.648438 24.414062 -17.636719 21.550781 -14.398438 C 17.21875 -9.554688 10.988281 -4.546875 4.210938 -1.894531 L 6.902344 0.925781 C 13.132812 -1.894531 18.816406 -6.523438 23.320312 -11.367188 C 27.613281 -7.535156 32.078125 -2.566406 34.898438 1.136719 L 37.84375 -1.429688 C 35.105469 -4.714844 29.972656 -10.1875 25.550781 -13.976562 C 28.539062 -17.765625 31.191406 -22.6875 32.625 -26.308594 C 32.875 -26.898438 33.421875 -27.824219 33.675781 -28.160156 Z M 31.527344 -29.804688 "/></g></g></g><g fill="#ffffff" fill-opacity="1"><g transform="translate(175.23482, 160.363349)"><g><path d="M 33.886719 -27.992188 C 33.214844 -27.742188 32.285156 -27.613281 31.152344 -27.613281 L 19.699219 -27.613281 C 20.078125 -28.203125 20.417969 -28.792969 20.710938 -29.382812 C 21.132812 -30.183594 21.890625 -31.570312 22.605469 -32.664062 L 18.691406 -33.972656 C 18.4375 -32.875 17.847656 -31.359375 17.386719 -30.644531 C 15.574219 -26.855469 11.449219 -20.753906 4.167969 -16.417969 L 7.070312 -14.226562 C 11.660156 -17.300781 15.195312 -21.046875 17.722656 -24.582031 L 31.949219 -24.582031 C 31.109375 -20.753906 28.539062 -15.324219 25.257812 -11.449219 C 21.425781 -6.988281 16.164062 -3.15625 8.460938 -0.882812 L 11.492188 1.851562 C 19.40625 -1.050781 24.414062 -4.925781 28.246094 -9.597656 C 31.992188 -14.144531 34.558594 -19.867188 35.695312 -24.078125 C 35.949219 -24.75 36.371094 -25.71875 36.707031 -26.308594 Z M 33.886719 -27.992188 "/></g></g></g><g fill="#ffffff" fill-opacity="1"><g transform="translate(217.324806, 160.363349)"><g><path d="M 4.292969 -14.101562 C 5.597656 -14.226562 7.828125 -14.3125 10.144531 -14.3125 L 33.253906 -14.3125 C 35.148438 -14.3125 36.917969 -14.144531 37.757812 -14.101562 L 37.757812 -18.226562 C 36.832031 -18.144531 35.316406 -18.015625 33.214844 -18.015625 L 10.144531 -18.015625 C 7.789062 -18.015625 5.554688 -18.144531 4.292969 -18.226562 Z M 4.292969 -14.101562 "/></g></g></g><g clip-path="url(#c140c013d6)"><g fill="#ffffff" fill-opacity="1"><g transform="translate(259.414792, 160.363349)"><g><path d="M 5.933594 1.011719 C 9.472656 -1.894531 12.164062 -6.019531 13.429688 -10.523438 C 14.566406 -14.734375 14.734375 -23.742188 14.734375 -28.414062 C 14.734375 -29.675781 14.902344 -30.941406 14.945312 -31.445312 L 11.070312 -31.445312 C 11.238281 -30.5625 11.367188 -29.636719 11.367188 -28.371094 C 11.367188 -23.699219 11.324219 -15.324219 10.101562 -11.449219 C 8.839844 -7.367188 6.3125 -3.621094 2.777344 -1.09375 Z M 24.289062 0.96875 C 24.710938 0.632812 25.089844 0.335938 25.71875 0 C 30.601562 -2.441406 36.453125 -6.734375 40.074219 -11.660156 L 38.054688 -14.523438 C 34.855469 -9.765625 29.675781 -5.933594 25.804688 -4.167969 L 25.804688 -28.457031 C 25.804688 -30.054688 25.929688 -31.234375 25.972656 -31.570312 L 22.101562 -31.570312 C 22.140625 -31.234375 22.351562 -30.054688 22.351562 -28.457031 L 22.351562 -3.242188 C 22.351562 -2.398438 22.226562 -1.558594 22.058594 -0.882812 Z M 24.289062 0.96875 "/></g></g></g></g></svg>