<svg xmlns="http://www.w3.org/2000/svg" xmlns:xlink="http://www.w3.org/1999/xlink" width="400" zoomAndPan="magnify" viewBox="0 0 300 168.749997" height="225" preserveAspectRatio="xMidYMid meet" version="1.0"><defs><g/><clipPath id="4714130932"><path d="M 0.222656 0 L 82 0 L 82 93 L 0.222656 93 Z M 0.222656 0 " clip-rule="nonzero"/></clipPath><clipPath id="69abdcab0a"><path d="M 218 0 L 299.777344 0 L 299.777344 93 L 218 93 Z M 218 0 " clip-rule="nonzero"/></clipPath><clipPath id="bf8f27829a"><path d="M 262 128 L 299.777344 128 L 299.777344 161 L 262 161 Z M 262 128 " clip-rule="nonzero"/></clipPath></defs><g clip-path="url(#4714130932)"><g fill="#ff292a" fill-opacity="1"><g transform="translate(-0.57431, 92.924268)"><g><path d="M 29.136719 -38.640625 L 31.925781 -48.902344 C 34.710938 -58.65625 37.5 -69.296875 39.90625 -79.558594 L 40.414062 -79.558594 C 43.199219 -69.425781 45.734375 -58.65625 48.648438 -48.902344 L 51.433594 -38.640625 Z M 62.078125 0 L 81.714844 0 L 51.5625 -93.75 L 29.519531 -93.75 L -0.507812 0 L 18.496094 0 L 25.085938 -24.070312 L 55.488281 -24.070312 Z M 62.078125 0 "/></g></g></g></g><g fill="#ff292a" fill-opacity="1"><g transform="translate(80.62665, 92.924268)"><g/></g></g><g fill="#ff292a" fill-opacity="1"><g transform="translate(109.382687, 92.924268)"><g><path d="M 29.136719 -38.640625 L 31.925781 -48.902344 C 34.710938 -58.65625 37.5 -69.296875 39.90625 -79.558594 L 40.414062 -79.558594 C 43.199219 -69.425781 45.734375 -58.65625 48.648438 -48.902344 L 51.433594 -38.640625 Z M 62.078125 0 L 81.714844 0 L 51.5625 -93.75 L 29.519531 -93.75 L -0.507812 0 L 18.496094 0 L 25.085938 -24.070312 L 55.488281 -24.070312 Z M 62.078125 0 "/></g></g></g><g fill="#ff292a" fill-opacity="1"><g transform="translate(190.583648, 92.924268)"><g/></g></g><g clip-path="url(#69abdcab0a)"><g fill="#ff292a" fill-opacity="1"><g transform="translate(219.339685, 92.924268)"><g><path d="M 29.136719 -38.640625 L 31.925781 -48.902344 C 34.710938 -58.65625 37.5 -69.296875 39.90625 -79.558594 L 40.414062 -79.558594 C 43.199219 -69.425781 45.734375 -58.65625 48.648438 -48.902344 L 51.433594 -38.640625 Z M 62.078125 0 L 81.714844 0 L 51.5625 -93.75 L 29.519531 -93.75 L -0.507812 0 L 18.496094 0 L 25.085938 -24.070312 L 55.488281 -24.070312 Z M 62.078125 0 "/></g></g></g></g><g fill="#ff292a" fill-opacity="1"><g transform="translate(6.87212, 159.793829)"><g><path d="M 11.914062 -24.117188 L 14.984375 -24.117188 L 14.984375 -28.496094 L 26.898438 -28.496094 L 26.898438 -24.117188 L 29.96875 -24.117188 L 29.96875 -28.496094 L 38.894531 -28.496094 L 38.894531 -31.359375 L 29.96875 -31.359375 L 29.96875 -35.191406 L 26.898438 -35.191406 L 26.898438 -31.359375 L 14.984375 -31.359375 L 14.984375 -35.191406 L 11.914062 -35.191406 L 11.914062 -31.359375 L 3.03125 -31.359375 L 3.03125 -28.496094 L 11.914062 -28.496094 Z M 9.890625 -11.703125 L 9.890625 -18.6875 L 19.277344 -18.6875 L 19.277344 -14.734375 C 19.277344 -13.722656 19.238281 -12.710938 19.066406 -11.703125 Z M 32.371094 -18.6875 L 32.371094 -11.703125 L 22.308594 -11.703125 C 22.433594 -12.667969 22.476562 -13.722656 22.476562 -14.691406 L 22.476562 -18.6875 Z M 39.609375 -8.753906 L 39.609375 -11.703125 L 35.484375 -11.703125 L 35.484375 -21.507812 L 22.476562 -21.507812 L 22.476562 -26.351562 L 19.277344 -26.351562 L 19.277344 -21.507812 L 6.859375 -21.507812 L 6.859375 -11.703125 L 2.527344 -11.703125 L 2.527344 -8.753906 L 18.183594 -8.753906 C 16.5 -5.007812 12.292969 -1.597656 1.769531 0.714844 C 2.441406 1.390625 3.285156 2.652344 3.660156 3.324219 C 14.605469 0.671875 19.320312 -3.285156 21.257812 -7.703125 C 24.582031 -1.558594 30.265625 1.851562 38.597656 3.324219 C 39.0625 2.484375 39.902344 1.179688 40.621094 0.503906 C 32.578125 -0.632812 26.9375 -3.578125 23.910156 -8.753906 Z M 39.609375 -8.753906 "/></g></g></g><g fill="#ff292a" fill-opacity="1"><g transform="translate(48.962111, 159.793829)"><g><path d="M 3.871094 -11.324219 L 14.941406 -11.324219 C 13.804688 -8.25 11.996094 -4.417969 10.398438 -1.515625 C 8.125 -1.429688 6.019531 -1.390625 4.210938 -1.347656 L 4.628906 1.726562 C 11.828125 1.472656 22.730469 1.011719 33.042969 0.503906 C 33.84375 1.515625 34.472656 2.484375 34.980469 3.324219 L 37.800781 1.597656 C 35.863281 -1.515625 31.78125 -6.0625 27.90625 -9.386719 L 25.253906 -7.957031 C 27.109375 -6.3125 29.085938 -4.25 30.8125 -2.273438 C 24.917969 -2.019531 18.984375 -1.808594 13.765625 -1.640625 C 15.449219 -4.589844 17.257812 -8.207031 18.730469 -11.324219 L 38.472656 -11.324219 L 38.472656 -14.226562 L 3.871094 -14.226562 Z M 11.027344 -22.226562 L 11.027344 -19.363281 L 30.9375 -19.363281 L 30.9375 -22.226562 Z M 19.109375 -35.148438 C 15.867188 -29.800781 8.882812 -23.742188 1.683594 -20.289062 C 2.355469 -19.65625 3.15625 -18.519531 3.492188 -17.804688 C 10.648438 -21.339844 17.46875 -27.109375 20.878906 -32.160156 C 24.792969 -26.730469 32.160156 -21.128906 38.640625 -17.972656 C 39.1875 -18.898438 39.945312 -19.992188 40.660156 -20.75 C 34.054688 -23.488281 26.730469 -28.960938 22.308594 -35.148438 Z M 19.109375 -35.148438 "/></g></g></g><g fill="#ff292a" fill-opacity="1"><g transform="translate(91.052103, 159.793829)"><g><path d="M 15.867188 -33.757812 L 4 -33.757812 L 4 -31.234375 L 15.867188 -31.234375 Z M 13.34375 -8.335938 L 13.34375 -1.304688 L 6.398438 -1.304688 L 6.398438 -8.335938 Z M 16.078125 -10.902344 L 3.660156 -10.902344 L 3.660156 3.15625 L 6.398438 3.15625 L 6.398438 1.261719 L 16.078125 1.261719 Z M 3.746094 -14.144531 L 15.953125 -14.144531 L 15.953125 -16.625 L 3.746094 -16.625 Z M 15.953125 -22.351562 L 3.746094 -22.351562 L 3.746094 -19.867188 L 15.953125 -19.867188 Z M 1.769531 -25.59375 L 17.34375 -25.59375 L 17.34375 -28.160156 L 1.769531 -28.160156 Z M 35.398438 -1.726562 L 23.023438 -1.726562 L 23.023438 -10.144531 L 35.398438 -10.144531 Z M 40.449219 -20.035156 L 40.449219 -23.023438 L 30.601562 -23.023438 L 30.601562 -30.179688 C 33.675781 -30.6875 36.578125 -31.273438 38.9375 -31.992188 L 36.664062 -34.515625 C 32.453125 -33.210938 24.960938 -32.160156 18.648438 -31.527344 C 18.984375 -30.8125 19.445312 -29.675781 19.53125 -28.917969 C 22.054688 -29.128906 24.75 -29.378906 27.445312 -29.71875 L 27.445312 -23.023438 L 17.636719 -23.023438 L 17.636719 -20.035156 L 27.445312 -20.035156 L 27.445312 -13.007812 L 20.078125 -13.007812 L 20.078125 3.199219 L 23.023438 3.199219 L 23.023438 1.09375 L 35.398438 1.09375 L 35.398438 2.945312 L 38.515625 2.945312 L 38.515625 -13.007812 L 30.601562 -13.007812 L 30.601562 -20.035156 Z M 40.449219 -20.035156 "/></g></g></g><g fill="#ff292a" fill-opacity="1"><g transform="translate(133.142094, 159.793829)"><g><path d="M 31.527344 -29.800781 C 30.855469 -29.589844 29.757812 -29.421875 28.371094 -29.421875 L 12.121094 -29.421875 C 10.859375 -29.421875 8.460938 -29.632812 7.871094 -29.71875 L 7.871094 -25.886719 C 8.335938 -25.929688 10.648438 -26.097656 12.121094 -26.097656 L 28.539062 -26.097656 C 27.488281 -22.644531 24.414062 -17.636719 21.550781 -14.394531 C 17.214844 -9.554688 10.984375 -4.546875 4.210938 -1.894531 L 6.902344 0.925781 C 13.132812 -1.894531 18.816406 -6.523438 23.320312 -11.363281 C 27.613281 -7.535156 32.074219 -2.566406 34.894531 1.136719 L 37.839844 -1.429688 C 35.105469 -4.714844 29.96875 -10.1875 25.550781 -13.976562 C 28.539062 -17.761719 31.191406 -22.6875 32.621094 -26.308594 C 32.875 -26.898438 33.421875 -27.824219 33.675781 -28.160156 Z M 31.527344 -29.800781 "/></g></g></g><g fill="#ff292a" fill-opacity="1"><g transform="translate(175.232085, 159.793829)"><g><path d="M 33.882812 -27.992188 C 33.210938 -27.738281 32.285156 -27.613281 31.148438 -27.613281 L 19.699219 -27.613281 C 20.078125 -28.203125 20.414062 -28.792969 20.710938 -29.378906 C 21.128906 -30.179688 21.886719 -31.570312 22.605469 -32.664062 L 18.6875 -33.96875 C 18.4375 -32.875 17.847656 -31.359375 17.382812 -30.644531 C 15.574219 -26.855469 11.449219 -20.75 4.167969 -16.417969 L 7.070312 -14.226562 C 11.660156 -17.300781 15.195312 -21.046875 17.722656 -24.582031 L 31.949219 -24.582031 C 31.105469 -20.75 28.539062 -15.320312 25.253906 -11.449219 C 21.425781 -6.988281 16.164062 -3.15625 8.460938 -0.882812 L 11.492188 1.851562 C 19.40625 -1.050781 24.414062 -4.925781 28.246094 -9.597656 C 31.992188 -14.144531 34.558594 -19.867188 35.695312 -24.078125 C 35.945312 -24.75 36.367188 -25.71875 36.703125 -26.308594 Z M 33.882812 -27.992188 "/></g></g></g><g fill="#ff292a" fill-opacity="1"><g transform="translate(217.322076, 159.793829)"><g><path d="M 4.292969 -14.101562 C 5.597656 -14.226562 7.828125 -14.3125 10.144531 -14.3125 L 33.253906 -14.3125 C 35.148438 -14.3125 36.914062 -14.144531 37.757812 -14.101562 L 37.757812 -18.226562 C 36.832031 -18.140625 35.316406 -18.015625 33.210938 -18.015625 L 10.144531 -18.015625 C 7.789062 -18.015625 5.554688 -18.140625 4.292969 -18.226562 Z M 4.292969 -14.101562 "/></g></g></g><g clip-path="url(#bf8f27829a)"><g fill="#ff292a" fill-opacity="1"><g transform="translate(259.412067, 159.793829)"><g><path d="M 5.933594 1.011719 C 9.472656 -1.894531 12.164062 -6.019531 13.425781 -10.523438 C 14.5625 -14.734375 14.734375 -23.742188 14.734375 -28.414062 C 14.734375 -29.675781 14.902344 -30.9375 14.941406 -31.441406 L 11.070312 -31.441406 C 11.238281 -30.558594 11.363281 -29.632812 11.363281 -28.371094 C 11.363281 -23.699219 11.324219 -15.320312 10.101562 -11.449219 C 8.839844 -7.367188 6.3125 -3.621094 2.777344 -1.09375 Z M 24.289062 0.96875 C 24.707031 0.632812 25.085938 0.335938 25.71875 0 C 30.601562 -2.441406 36.453125 -6.734375 40.070312 -11.660156 L 38.050781 -14.523438 C 34.851562 -9.765625 29.675781 -5.933594 25.804688 -4.167969 L 25.804688 -28.453125 C 25.804688 -30.054688 25.929688 -31.234375 25.972656 -31.570312 L 22.097656 -31.570312 C 22.140625 -31.234375 22.351562 -30.054688 22.351562 -28.453125 L 22.351562 -3.242188 C 22.351562 -2.398438 22.226562 -1.558594 22.054688 -0.882812 Z M 24.289062 0.96875 "/></g></g></g></g></svg>